<mxfile host="65bd71144e">
    <diagram id="krhJlfJHd-_9YJ0-rZ7S" name="第 1 页">
        <mxGraphModel dx="1167" dy="909" grid="1" gridSize="10" guides="1" tooltips="1" connect="1" arrows="1" fold="1" page="1" pageScale="1" pageWidth="827" pageHeight="1169" math="0" shadow="0">
            <root>
                <mxCell id="0"/>
                <mxCell id="1" parent="0"/>
                <mxCell id="70" style="edgeStyle=none;html=1;exitX=0.5;exitY=1;exitDx=0;exitDy=0;entryX=0.375;entryY=-0.017;entryDx=0;entryDy=0;entryPerimeter=0;fontFamily=Courier New;fontSize=14;" edge="1" parent="1">
                    <mxGeometry relative="1" as="geometry">
                        <mxPoint x="493" y="130" as="sourcePoint"/>
                        <mxPoint x="493" y="149.98000000000002" as="targetPoint"/>
                    </mxGeometry>
                </mxCell>
                <mxCell id="2" value="" style="rounded=0;whiteSpace=wrap;html=1;dashed=1;fillColor=#eeeeee;strokeColor=#36393d;" vertex="1" parent="1">
                    <mxGeometry x="153" y="40" width="650" height="90" as="geometry"/>
                </mxCell>
                <mxCell id="3" value="&lt;font face=&quot;Courier New&quot; style=&quot;font-size: 14px&quot;&gt;Android医生端&lt;/font&gt;" style="rounded=0;whiteSpace=wrap;html=1;dashed=1;fillColor=#60a917;fontColor=#ffffff;strokeColor=#2D7600;" vertex="1" parent="1">
                    <mxGeometry x="193" y="55" width="120" height="60" as="geometry"/>
                </mxCell>
                <mxCell id="4" value="&lt;font face=&quot;Courier New&quot; style=&quot;font-size: 14px&quot;&gt;Web管理&lt;/font&gt;" style="rounded=0;whiteSpace=wrap;html=1;dashed=1;fillColor=#60a917;fontColor=#ffffff;strokeColor=#2D7600;" vertex="1" parent="1">
                    <mxGeometry x="433" y="55" width="120" height="60" as="geometry"/>
                </mxCell>
                <mxCell id="5" value="&lt;font face=&quot;Courier New&quot;&gt;&lt;span style=&quot;font-size: 14px&quot;&gt;小程序&lt;/span&gt;&lt;/font&gt;" style="rounded=0;whiteSpace=wrap;html=1;dashed=1;fillColor=#60a917;fontColor=#ffffff;strokeColor=#2D7600;" vertex="1" parent="1">
                    <mxGeometry x="643" y="55" width="120" height="60" as="geometry"/>
                </mxCell>
                <mxCell id="71" style="edgeStyle=none;html=1;exitX=0.5;exitY=1;exitDx=0;exitDy=0;entryX=0.525;entryY=-0.018;entryDx=0;entryDy=0;entryPerimeter=0;fontFamily=Courier New;fontSize=14;" edge="1" parent="1" source="6" target="14">
                    <mxGeometry relative="1" as="geometry"/>
                </mxCell>
                <mxCell id="6" value="&lt;b&gt;Nginx&lt;/b&gt;" style="rounded=0;whiteSpace=wrap;html=1;dashed=1;fontFamily=Courier New;fontSize=14;fillColor=#e51400;fontColor=#ffffff;strokeColor=#B20000;" vertex="1" parent="1">
                    <mxGeometry x="433" y="151" width="120" height="60" as="geometry"/>
                </mxCell>
                <mxCell id="72" style="edgeStyle=none;html=1;exitX=0.535;exitY=1;exitDx=0;exitDy=0;entryX=0.5;entryY=0;entryDx=0;entryDy=0;fontFamily=Courier New;fontSize=14;exitPerimeter=0;" edge="1" parent="1" source="14">
                    <mxGeometry relative="1" as="geometry">
                        <mxPoint x="503" y="320" as="sourcePoint"/>
                        <mxPoint x="502" y="358" as="targetPoint"/>
                    </mxGeometry>
                </mxCell>
                <mxCell id="14" value="" style="rounded=0;whiteSpace=wrap;html=1;dashed=1;fillColor=#dae8fc;strokeColor=#6c8ebf;" vertex="1" parent="1">
                    <mxGeometry x="153" y="230" width="650" height="90" as="geometry"/>
                </mxCell>
                <mxCell id="15" value="GateWay" style="rounded=0;whiteSpace=wrap;html=1;dashed=1;fontFamily=Courier New;fontSize=14;fillColor=#6d8764;fontColor=#ffffff;strokeColor=#3A5431;" vertex="1" parent="1">
                    <mxGeometry x="193" y="245" width="120" height="60" as="geometry"/>
                </mxCell>
                <mxCell id="16" value="GateWay" style="rounded=0;whiteSpace=wrap;html=1;dashed=1;fontFamily=Courier New;fontSize=14;fillColor=#6d8764;fontColor=#ffffff;strokeColor=#3A5431;" vertex="1" parent="1">
                    <mxGeometry x="433" y="245" width="120" height="60" as="geometry"/>
                </mxCell>
                <mxCell id="17" value="GateWay" style="rounded=0;whiteSpace=wrap;html=1;dashed=1;fontFamily=Courier New;fontSize=14;fillColor=#6d8764;fontColor=#ffffff;strokeColor=#3A5431;" vertex="1" parent="1">
                    <mxGeometry x="643" y="245" width="120" height="60" as="geometry"/>
                </mxCell>
                <mxCell id="30" value="" style="rounded=0;whiteSpace=wrap;html=1;dashed=1;fillColor=#d5e8d4;strokeColor=#82b366;" vertex="1" parent="1">
                    <mxGeometry x="150.5" y="358" width="653" height="260" as="geometry"/>
                </mxCell>
                <mxCell id="31" value="用户服务" style="rounded=0;whiteSpace=wrap;html=1;dashed=1;fontFamily=Courier New;fontSize=14;fillColor=#76608a;fontColor=#ffffff;strokeColor=#432D57;" vertex="1" parent="1">
                    <mxGeometry x="243" y="437" width="120" height="60" as="geometry"/>
                </mxCell>
                <mxCell id="32" value="诊所服务" style="rounded=0;whiteSpace=wrap;html=1;dashed=1;fontFamily=Courier New;fontSize=14;fillColor=#76608a;fontColor=#ffffff;strokeColor=#432D57;" vertex="1" parent="1">
                    <mxGeometry x="428.5" y="437" width="120" height="60" as="geometry"/>
                </mxCell>
                <mxCell id="33" value="辩证服务" style="rounded=0;whiteSpace=wrap;html=1;dashed=1;fontFamily=Courier New;fontSize=14;fillColor=#76608a;fontColor=#ffffff;strokeColor=#432D57;" vertex="1" parent="1">
                    <mxGeometry x="613" y="437" width="120" height="60" as="geometry"/>
                </mxCell>
                <mxCell id="34" value="开方服务" style="rounded=0;whiteSpace=wrap;html=1;dashed=1;fontFamily=Courier New;fontSize=14;fillColor=#76608a;fontColor=#ffffff;strokeColor=#432D57;" vertex="1" parent="1">
                    <mxGeometry x="243" y="524" width="120" height="60" as="geometry"/>
                </mxCell>
                <mxCell id="35" value="订单服务" style="rounded=0;whiteSpace=wrap;html=1;dashed=1;fontFamily=Courier New;fontSize=14;fillColor=#76608a;fontColor=#ffffff;strokeColor=#432D57;" vertex="1" parent="1">
                    <mxGeometry x="429" y="524" width="120" height="60" as="geometry"/>
                </mxCell>
                <mxCell id="37" value="...." style="rounded=0;whiteSpace=wrap;html=1;dashed=1;fontFamily=Courier New;fontSize=14;fillColor=#76608a;fontColor=#ffffff;strokeColor=#432D57;" vertex="1" parent="1">
                    <mxGeometry x="613" y="524" width="120" height="60" as="geometry"/>
                </mxCell>
                <mxCell id="73" style="edgeStyle=none;html=1;exitX=0.5;exitY=1;exitDx=0;exitDy=0;entryX=0.576;entryY=0.007;entryDx=0;entryDy=0;entryPerimeter=0;fontFamily=Courier New;fontSize=14;" edge="1" parent="1" source="41" target="43">
                    <mxGeometry relative="1" as="geometry"/>
                </mxCell>
                <mxCell id="41" value="&lt;b&gt;服务之间相互调用&lt;/b&gt;" style="text;html=1;strokeColor=none;fillColor=none;align=center;verticalAlign=middle;whiteSpace=wrap;rounded=0;dashed=1;fontFamily=Courier New;fontSize=14;" vertex="1" parent="1">
                    <mxGeometry x="442" y="588" width="161" height="30" as="geometry"/>
                </mxCell>
                <mxCell id="43" value="" style="rounded=0;whiteSpace=wrap;html=1;dashed=1;fillColor=#f5f5f5;strokeColor=#666666;gradientColor=#b3b3b3;" vertex="1" parent="1">
                    <mxGeometry x="148" y="646" width="650" height="230" as="geometry"/>
                </mxCell>
                <mxCell id="48" value="Nacos&lt;br&gt;注册中心&lt;br&gt;配置中心" style="rounded=0;whiteSpace=wrap;html=1;dashed=1;fontFamily=Courier New;fontSize=14;fillColor=#76608a;fontColor=#ffffff;strokeColor=#432D57;" vertex="1" parent="1">
                    <mxGeometry x="448" y="363" width="120" height="60" as="geometry"/>
                </mxCell>
                <mxCell id="53" value="" style="rounded=0;whiteSpace=wrap;html=1;dashed=1;fontFamily=Courier New;fontSize=14;fillColor=#f5f5f5;gradientColor=#b3b3b3;strokeColor=#666666;" vertex="1" parent="1">
                    <mxGeometry x="405" y="726" width="240" height="150" as="geometry"/>
                </mxCell>
                <mxCell id="57" value="" style="rounded=0;whiteSpace=wrap;html=1;dashed=1;fontFamily=Courier New;fontSize=14;fillColor=#f5f5f5;gradientColor=#b3b3b3;strokeColor=#666666;" vertex="1" parent="1">
                    <mxGeometry x="148" y="726" width="240" height="150" as="geometry"/>
                </mxCell>
                <mxCell id="58" value="" style="ellipse;shape=cloud;whiteSpace=wrap;html=1;dashed=1;fontFamily=Courier New;fontSize=14;fillColor=#f5f5f5;gradientColor=#b3b3b3;strokeColor=#666666;" vertex="1" parent="1">
                    <mxGeometry x="655" y="736" width="140" height="130" as="geometry"/>
                </mxCell>
                <mxCell id="59" value="&lt;font color=&quot;#ffffff&quot;&gt;MySQL&lt;/font&gt;" style="shape=cylinder3;whiteSpace=wrap;html=1;boundedLbl=1;backgroundOutline=1;size=15;dashed=1;fontFamily=Courier New;fontSize=14;fillColor=#dae8fc;gradientColor=#7ea6e0;strokeColor=#6c8ebf;" vertex="1" parent="1">
                    <mxGeometry x="163" y="786" width="60" height="80" as="geometry"/>
                </mxCell>
                <mxCell id="60" value="&lt;span&gt;&lt;font color=&quot;#ffffff&quot;&gt;MySQL&lt;/font&gt;&lt;/span&gt;" style="shape=cylinder3;whiteSpace=wrap;html=1;boundedLbl=1;backgroundOutline=1;size=15;dashed=1;fontFamily=Courier New;fontSize=14;fillColor=#dae8fc;gradientColor=#7ea6e0;strokeColor=#6c8ebf;" vertex="1" parent="1">
                    <mxGeometry x="283" y="786" width="60" height="80" as="geometry"/>
                </mxCell>
                <mxCell id="61" value="&lt;font color=&quot;#ffffff&quot;&gt;Redis&lt;/font&gt;" style="shape=cube;whiteSpace=wrap;html=1;boundedLbl=1;backgroundOutline=1;darkOpacity=0.05;darkOpacity2=0.1;dashed=1;fontFamily=Courier New;fontSize=14;fillColor=#dae8fc;gradientColor=#7ea6e0;strokeColor=#6c8ebf;" vertex="1" parent="1">
                    <mxGeometry x="428" y="826" width="62" height="50" as="geometry"/>
                </mxCell>
                <mxCell id="62" value="&lt;font color=&quot;#ffffff&quot;&gt;Redis&lt;/font&gt;" style="shape=cube;whiteSpace=wrap;html=1;boundedLbl=1;backgroundOutline=1;darkOpacity=0.05;darkOpacity2=0.1;dashed=1;fontFamily=Courier New;fontSize=14;fillColor=#dae8fc;gradientColor=#7ea6e0;strokeColor=#6c8ebf;" vertex="1" parent="1">
                    <mxGeometry x="565" y="826" width="62" height="50" as="geometry"/>
                </mxCell>
                <mxCell id="63" value="&lt;font color=&quot;#ffffff&quot;&gt;Redis&lt;/font&gt;" style="shape=cube;whiteSpace=wrap;html=1;boundedLbl=1;backgroundOutline=1;darkOpacity=0.05;darkOpacity2=0.1;dashed=1;fontFamily=Courier New;fontSize=14;fillColor=#dae8fc;gradientColor=#7ea6e0;strokeColor=#6c8ebf;" vertex="1" parent="1">
                    <mxGeometry x="486" y="766" width="62" height="50" as="geometry"/>
                </mxCell>
                <mxCell id="64" value="&lt;font color=&quot;#ffffff&quot;&gt;数据库&lt;/font&gt;" style="text;html=1;strokeColor=none;fillColor=none;align=center;verticalAlign=middle;whiteSpace=wrap;rounded=0;dashed=1;fontFamily=Courier New;fontSize=14;" vertex="1" parent="1">
                    <mxGeometry x="223" y="676" width="60" height="30" as="geometry"/>
                </mxCell>
                <mxCell id="65" value="&lt;font color=&quot;#ffffff&quot;&gt;缓存，分布式锁&lt;/font&gt;" style="text;html=1;strokeColor=none;fillColor=none;align=center;verticalAlign=middle;whiteSpace=wrap;rounded=0;dashed=1;fontFamily=Courier New;fontSize=14;" vertex="1" parent="1">
                    <mxGeometry x="472.5" y="676" width="60" height="30" as="geometry"/>
                </mxCell>
                <mxCell id="66" value="&lt;font color=&quot;#ffffff&quot;&gt;云服务&lt;/font&gt;" style="text;html=1;strokeColor=none;fillColor=none;align=center;verticalAlign=middle;whiteSpace=wrap;rounded=0;dashed=1;fontFamily=Courier New;fontSize=14;" vertex="1" parent="1">
                    <mxGeometry x="695" y="676" width="60" height="30" as="geometry"/>
                </mxCell>
                <mxCell id="67" value="&lt;font color=&quot;#ffffff&quot;&gt;COS&lt;/font&gt;" style="ellipse;whiteSpace=wrap;html=1;dashed=1;fontFamily=Courier New;fontSize=14;fillColor=#dae8fc;gradientColor=#7ea6e0;strokeColor=#6c8ebf;" vertex="1" parent="1">
                    <mxGeometry x="685" y="766" width="50" height="40" as="geometry"/>
                </mxCell>
                <mxCell id="68" value="&lt;font color=&quot;#ffffff&quot;&gt;SMS&lt;/font&gt;" style="ellipse;whiteSpace=wrap;html=1;dashed=1;fontFamily=Courier New;fontSize=14;fillColor=#dae8fc;gradientColor=#7ea6e0;strokeColor=#6c8ebf;" vertex="1" parent="1">
                    <mxGeometry x="715" y="806" width="50" height="40" as="geometry"/>
                </mxCell>
                <mxCell id="74" value="" style="rounded=0;whiteSpace=wrap;html=1;dashed=1;fontFamily=Courier New;fontSize=14;fillColor=#dae8fc;gradientColor=#7ea6e0;strokeColor=#6c8ebf;" vertex="1" parent="1">
                    <mxGeometry x="20" y="646" width="120" height="234" as="geometry"/>
                </mxCell>
                <mxCell id="75" value="&lt;span style=&quot;font-size: 18px&quot;&gt;&lt;b&gt;数据层&lt;/b&gt;&lt;/span&gt;" style="text;html=1;strokeColor=none;fillColor=none;align=center;verticalAlign=middle;whiteSpace=wrap;rounded=0;dashed=1;fontFamily=Courier New;fontSize=14;" vertex="1" parent="1">
                    <mxGeometry x="50" y="743" width="60" height="30" as="geometry"/>
                </mxCell>
                <mxCell id="76" value="&lt;span style=&quot;font-size: 18px&quot;&gt;&lt;b&gt;云服务&lt;/b&gt;&lt;/span&gt;" style="text;html=1;strokeColor=none;fillColor=none;align=center;verticalAlign=middle;whiteSpace=wrap;rounded=0;dashed=1;fontFamily=Courier New;fontSize=14;" vertex="1" parent="1">
                    <mxGeometry x="40" y="776" width="80" height="30" as="geometry"/>
                </mxCell>
                <mxCell id="78" value="" style="rounded=0;whiteSpace=wrap;html=1;dashed=1;fontFamily=Courier New;fontSize=14;fillColor=#76608A;gradientColor=#b3b3b3;strokeColor=#666666;" vertex="1" parent="1">
                    <mxGeometry x="20" y="360" width="120" height="258" as="geometry"/>
                </mxCell>
                <mxCell id="79" value="服务层" style="text;html=1;strokeColor=none;fillColor=none;align=center;verticalAlign=middle;whiteSpace=wrap;rounded=0;dashed=1;fontFamily=Courier New;fontSize=18;" vertex="1" parent="1">
                    <mxGeometry x="50" y="467" width="60" height="30" as="geometry"/>
                </mxCell>
                <mxCell id="80" value="" style="rounded=0;whiteSpace=wrap;html=1;dashed=1;fontFamily=Courier New;fontSize=14;fillColor=#6D8764;gradientColor=#b3b3b3;strokeColor=#666666;" vertex="1" parent="1">
                    <mxGeometry x="20" y="230" width="120" height="90" as="geometry"/>
                </mxCell>
                <mxCell id="81" value="网关层" style="text;html=1;strokeColor=none;fillColor=none;align=center;verticalAlign=middle;whiteSpace=wrap;rounded=0;dashed=1;fontFamily=Courier New;fontSize=18;" vertex="1" parent="1">
                    <mxGeometry x="50" y="260" width="60" height="30" as="geometry"/>
                </mxCell>
                <mxCell id="82" value="" style="rounded=0;whiteSpace=wrap;html=1;dashed=1;fontFamily=Courier New;fontSize=14;fillColor=#E51400;gradientColor=#b3b3b3;strokeColor=#666666;" vertex="1" parent="1">
                    <mxGeometry x="20" y="140" width="120" height="80" as="geometry"/>
                </mxCell>
                <mxCell id="83" value="代理层" style="text;html=1;strokeColor=none;fillColor=none;align=center;verticalAlign=middle;whiteSpace=wrap;rounded=0;dashed=1;fontFamily=Courier New;fontSize=18;" vertex="1" parent="1">
                    <mxGeometry x="50" y="160" width="60" height="30" as="geometry"/>
                </mxCell>
                <mxCell id="84" value="" style="rounded=0;whiteSpace=wrap;html=1;dashed=1;fontFamily=Courier New;fontSize=14;fillColor=#60A917;gradientColor=#b3b3b3;strokeColor=#666666;" vertex="1" parent="1">
                    <mxGeometry x="20" y="40" width="120" height="90" as="geometry"/>
                </mxCell>
                <mxCell id="85" value="展现层" style="text;html=1;strokeColor=none;fillColor=none;align=center;verticalAlign=middle;whiteSpace=wrap;rounded=0;dashed=1;fontFamily=Courier New;fontSize=18;" vertex="1" parent="1">
                    <mxGeometry x="50" y="70" width="60" height="30" as="geometry"/>
                </mxCell>
            </root>
        </mxGraphModel>
    </diagram>
</mxfile>